<svg width="72" height="15" viewBox="0 0 72 15" fill="none" xmlns="http://www.w3.org/2000/svg">
<path d="M10.1426 1.80957L9.20215 3.69922C8.69238 3.18945 7.87207 2.93457 6.74121 2.93457C5.66895 2.93457 4.79004 3.38574 4.10449 4.28809C3.41895 5.18457 3.07617 6.32129 3.07617 7.69824C3.07617 9.0752 3.39258 10.168 4.02539 10.9766C4.66406 11.7852 5.51367 12.1895 6.57422 12.1895C7.78711 12.1895 8.73633 11.7559 9.42188 10.8887L10.4854 12.7344C9.55371 13.7246 8.18848 14.2197 6.38965 14.2197C4.59082 14.2197 3.19336 13.6279 2.19727 12.4443C1.20117 11.2607 0.703125 9.64648 0.703125 7.60156C0.703125 5.69727 1.25391 4.10645 2.35547 2.8291C3.46289 1.5459 4.87793 0.904297 6.60059 0.904297C8.07715 0.904297 9.25781 1.20605 10.1426 1.80957ZM17.4463 13.0596C17.2471 13.3877 16.8984 13.6572 16.4004 13.8682C15.9082 14.0732 15.3926 14.1758 14.8535 14.1758C13.8398 14.1758 13.043 13.9238 12.4629 13.4199C11.8828 12.9102 11.5928 12.1895 11.5928 11.2578C11.5928 10.168 12 9.31543 12.8145 8.7002C13.6348 8.08496 14.7979 7.77734 16.3037 7.77734C16.5615 7.77734 16.8662 7.82129 17.2178 7.90918C17.2178 6.80176 16.5176 6.24805 15.1172 6.24805C14.291 6.24805 13.5996 6.38574 13.043 6.66113L12.5684 4.95605C13.3242 4.59277 14.2236 4.41113 15.2666 4.41113C16.7021 4.41113 17.7539 4.73926 18.4219 5.39551C19.0898 6.0459 19.4238 7.28223 19.4238 9.10449V11.1172C19.4238 12.3711 19.6758 13.1592 20.1797 13.4814C19.998 13.7979 19.7959 13.9912 19.5732 14.0615C19.3506 14.1377 19.0957 14.1758 18.8086 14.1758C18.4922 14.1758 18.208 14.0586 17.9561 13.8242C17.7041 13.5898 17.5342 13.335 17.4463 13.0596ZM17.2354 9.57031C16.8604 9.49414 16.5791 9.45605 16.3916 9.45605C14.6572 9.45605 13.79 10.0244 13.79 11.1611C13.79 12.0049 14.2793 12.4268 15.2578 12.4268C16.5762 12.4268 17.2354 11.7676 17.2354 10.4492V9.57031ZM27.2461 6.63477C26.8535 6.37695 26.4229 6.24805 25.9541 6.24805C25.4443 6.24805 24.9902 6.47949 24.5918 6.94238C24.1992 7.40527 24.0029 7.9707 24.0029 8.63867V14H21.8057V4.58691H24.0029V5.44824C24.6182 4.75684 25.4355 4.41113 26.4551 4.41113C27.2051 4.41113 27.7793 4.52539 28.1777 4.75391L27.2461 6.63477ZM37.9072 9.96582H31.1836C31.2246 10.7158 31.4824 11.2988 31.957 11.7148C32.4316 12.1309 33.0703 12.3389 33.873 12.3389C34.875 12.3389 35.6367 12.0781 36.1582 11.5566L37.0107 13.2354C36.2373 13.8623 35.083 14.1758 33.5479 14.1758C32.1123 14.1758 30.9756 13.7568 30.1377 12.9189C29.3057 12.0752 28.8896 10.9004 28.8896 9.39453C28.8896 7.91211 29.3467 6.71094 30.2607 5.79102C31.1807 4.87109 32.2822 4.41113 33.5654 4.41113C34.9307 4.41113 36.0264 4.81836 36.8525 5.63281C37.6787 6.44727 38.0918 7.48438 38.0918 8.74414C38.0918 9.01367 38.0303 9.4209 37.9072 9.96582ZM31.2627 8.31348H35.8857C35.7334 6.93652 34.9717 6.24805 33.6006 6.24805C32.3467 6.24805 31.5674 6.93652 31.2627 8.31348ZM48.2607 9.96582H41.5371C41.5781 10.7158 41.8359 11.2988 42.3105 11.7148C42.7852 12.1309 43.4238 12.3389 44.2266 12.3389C45.2285 12.3389 45.9902 12.0781 46.5117 11.5566L47.3643 13.2354C46.5908 13.8623 45.4365 14.1758 43.9014 14.1758C42.4658 14.1758 41.3291 13.7568 40.4912 12.9189C39.6592 12.0752 39.2432 10.9004 39.2432 9.39453C39.2432 7.91211 39.7002 6.71094 40.6143 5.79102C41.5342 4.87109 42.6357 4.41113 43.9189 4.41113C45.2842 4.41113 46.3799 4.81836 47.2061 5.63281C48.0322 6.44727 48.4453 7.48438 48.4453 8.74414C48.4453 9.01367 48.3838 9.4209 48.2607 9.96582ZM41.6162 8.31348H46.2393C46.0869 6.93652 45.3252 6.24805 43.9541 6.24805C42.7002 6.24805 41.9209 6.93652 41.6162 8.31348ZM55.6523 6.63477C55.2598 6.37695 54.8291 6.24805 54.3604 6.24805C53.8506 6.24805 53.3965 6.47949 52.998 6.94238C52.6055 7.40527 52.4092 7.9707 52.4092 8.63867V14H50.2119V4.58691H52.4092V5.44824C53.0244 4.75684 53.8418 4.41113 54.8613 4.41113C55.6113 4.41113 56.1855 4.52539 56.584 4.75391L55.6523 6.63477Z" fill="white"/>
<path d="M65.5576 14L64.6172 11.3896H60.2051L59.3086 14H56.7686L61.9014 0.948242H62.9033L68.0801 14H65.5576ZM62.4023 4.88574L60.8555 9.64062H63.9492L62.4023 4.88574ZM69.4951 14V1.12402H71.7803V14H69.4951Z" fill="#FFB400"/>
</svg>
