
<svg width="70" height="25" viewBox="0 0 70 25" fill="none" xmlns="http://www.w3.org/2000/svg">
<path d="M28.4545 15.8238C31.5792 16.1975 34.6623 16.1393 37.7734 16.3837C39.2792 16.5021 42.6208 16.3178 43.792 17.0414C42.0331 18.2788 31.6528 18.5974 35.7025 23.3338C38.3565 26.4379 45.2531 24.3285 48.4549 23.9313C52.9707 23.3709 74.4193 24.2889 69.1819 14.7478C67.1468 11.0404 60.452 8.69501 56.9092 6.98725C51.7604 4.50522 46.5222 2.67424 41.1283 0.867347C38.0795 -0.154025 31.589 -0.992996 36.9572 2.75211C41.0729 5.62347 46.7022 7.40471 50.2689 10.8791C44.0412 11.1619 37.6391 9.70738 31.2293 10.1048C23.6985 10.5717 16.0308 10.207 8.4865 10.1908C7.31572 10.1883 -1.24768 9.16378 0.154694 12.4119C1.04059 14.4636 6.44346 14.1723 8.1502 14.314C10.7425 14.5291 13.2022 14.8768 15.7803 15.1442C17.726 15.346 19.702 15.2811 21.6541 15.4114C23.6565 15.545 26.5056 16.434 28.4545 15.8238C26.7661 16.3524 31.5313 16.1919 28.4545 15.8238Z" fill="#222221"/>
</svg>
