
<svg width="179" height="122" viewBox="0 0 179 122" fill="none" xmlns="http://www.w3.org/2000/svg">
<path d="M127.147 45.3563C126.148 44.7015 121.764 41.8508 117.437 39.0482C97.1226 25.7687 70.2591 16.1863 45.2458 13.3477C36.3769 12.34 34.2356 11.8844 36.7771 11.4121C38.9566 11.0223 45.9221 6.60663 46.4417 5.1952C46.7539 4.48519 46.7025 3.17337 46.3142 2.25776C45.7798 0.827738 45.2885 0.604937 42.4334 1.10296C31.1092 2.98184 1.35717 14.0619 1.53955 16.3632C1.58929 16.9908 1.23731 17.862 0.755876 18.428C0.274444 18.994 0.284331 19.7828 0.735797 20.1668C1.18726 20.5508 1.38972 21.1132 1.10086 21.4529C0.860149 21.7359 0.901599 22.2589 1.29663 22.5949C1.63523 22.8829 2.04015 24.0077 2.1712 24.9971C2.36027 26.7187 3.07732 27.1335 13.8714 32.5102C20.1705 35.6244 29.2499 40.6156 34.012 43.5931C41.8116 48.3737 53.2181 54.1737 54.7867 54.0447C55.9371 53.9501 56.9831 50.5477 56.6863 47.4662C56.2319 42.3973 52.9422 39.4041 37.6485 29.7124C35.9322 28.6428 34.7471 27.6348 34.9397 27.4084C35.0841 27.2386 39.4779 27.5616 44.7415 28.2342C55.6306 29.4969 76.6664 34.6103 86.8614 38.4043C90.7106 39.825 93.5607 40.5908 93.1092 40.2067C92.593 39.6701 92.7939 39.5483 93.8728 39.8807C96.0306 40.5455 97.5626 41.9462 95.5176 41.3774C94.1731 41.0142 94.125 41.0708 95.6072 41.8438C96.4936 42.4026 97.541 43.0008 97.8231 43.2408C98.1617 43.5288 98.2331 43.1018 98.0224 42.4348C97.7868 41.454 98.0042 41.5414 98.8922 42.7844C99.7718 43.9228 100.706 44.425 101.8 44.2824C103.739 44.1756 105.117 44.9572 103.678 45.3914C103.115 45.5956 103.244 45.9008 104.066 46.307C106.466 47.373 112.485 50.9314 118.206 54.7249C123.863 58.3657 144.371 75.4195 145.752 77.5695C146.116 78.1713 148.826 81.1595 151.746 84.1306C158.577 91.3071 163.379 97.4397 167.87 104.967C172.603 112.895 173.923 116.261 173.114 118.012C172.385 119.44 174.08 121.564 175.567 121.074C177.207 120.518 178.502 116.937 178.445 112.888C178.425 107.994 174.193 97.7611 168.574 89.2742C161.452 78.4366 148.899 64.1503 138.482 54.8998C133.33 50.3225 128.203 46.0591 127.147 45.3563ZM116.736 42.1591C116.448 42.4987 107.939 37.4078 107.946 36.8282C107.929 36.619 109.451 37.2308 111.385 38.3878C115.414 40.7413 117.025 41.8195 116.736 42.1591ZM103.428 34.9362C87.1247 27.1174 66.7131 20.584 50.9373 18.0912C44.0072 16.9766 42.8801 16.7008 45.463 16.7516C52.8895 16.8252 73.9254 21.9385 87.0434 26.7556C93.5501 29.1684 104.489 34.3752 106.125 35.7672C106.698 36.3518 105.506 35.9234 103.428 34.9362ZM86.634 37.5281C85.9419 37.4271 84.6372 36.9027 83.6546 36.4571C82.2287 35.7321 82.3815 35.6669 84.37 36.1877C86.898 36.8747 88.7189 37.9357 86.634 37.5281ZM80.6269 35.4427C79.9348 35.3417 79.0733 35.0967 78.7347 34.8087C78.4525 34.5687 78.8061 34.3817 79.4983 34.4827C80.1905 34.5837 81.1084 34.8767 81.3905 35.1167C81.7291 35.4047 81.3191 35.5437 80.6269 35.4427ZM76.8424 34.1747C76.1502 34.0737 75.2887 33.8287 74.9501 33.5407C74.668 33.3007 75.0216 33.1137 75.7137 33.2147C76.4059 33.3157 77.3238 33.6087 77.606 33.8487C77.9446 34.1367 77.5346 34.2757 76.8424 34.1747ZM62.9226 30.5291C57.5611 29.2855 49.7131 27.8779 45.5118 27.3286C41.206 26.7878 37.8978 26.2176 38.0422 26.0478C38.9088 25.0289 70.4138 30.7553 72.2114 32.1867C72.55 32.4747 68.3322 31.7161 62.9226 30.5291ZM59.2062 27.4657C59.11 27.5789 57.943 27.4643 56.5504 27.1577C53.4912 26.4091 53.7635 25.8603 56.8708 26.5523C59.4387 27.0781 59.5432 27.0695 59.2062 27.4657ZM51.9541 26.2723C49.524 26.1563 47.1171 25.6699 47.406 25.3303C47.6467 25.0473 53.1759 25.7507 53.5709 26.0867C53.6921 26.2873 52.96 26.3475 51.9541 26.2723ZM37.0446 26.0772C36.9483 26.1904 36.1117 26.2592 35.2668 26.2234C33.738 26.1912 33.7297 26.0866 35.2337 25.805C36.7376 25.5234 37.4298 25.6244 37.0446 26.0772Z" fill="#A7D918"/>
</svg>
