
<svg width="65" height="87" viewBox="0 0 65 87" fill="none" xmlns="http://www.w3.org/2000/svg">
<path d="M16.5256 9.99917C15.4627 10.1605 12.5896 14.6577 9.92484 20.1005C5.80732 28.5779 5.478 30.1781 6.97779 31.4838C10.655 34.936 12.5446 33.3685 16.9915 23.2909C21.6512 12.2878 21.64 8.97 16.5256 9.99917Z" fill="black"/>
<path d="M35.3948 38.0628C23.6887 45.4512 21.1931 48.2228 25.1717 49.7757C26.7879 50.4065 31.4935 48.2093 39.4126 43.2326C46.0279 39.0436 51.4839 35.2665 51.7247 34.6402C51.9173 34.1391 50.7424 33.1042 49.1261 32.4734C46.8882 31.5999 43.4864 33.0094 35.3948 38.0628Z" fill="black"/>
<path d="M50.6579 60.9507C39.2341 62.3985 28.4958 65.4104 28.8363 67.128C29.4131 70.0904 33.7008 70.4674 43.729 68.1867C49.3127 67.0526 55.2413 65.765 57.0704 65.4705C58.8995 65.1759 60.5763 64.5338 60.8172 63.9075C61.8286 61.2769 57.5812 60.0513 50.6579 60.9507Z" fill="black"/>
</svg>
